<svg width="24" height="24" viewBox="0 0 24 24" fill="none" xmlns="http://www.w3.org/2000/svg">
<path fill-rule="evenodd" clip-rule="evenodd" d="M3.6001 6.0001C3.6001 5.36358 3.85295 4.75313 4.30304 4.30304C4.75313 3.85295 5.36358 3.6001 6.0001 3.6001H18.0001C18.6366 3.6001 19.2471 3.85295 19.6972 4.30304C20.1472 4.75313 20.4001 5.36358 20.4001 6.0001V15.6001C20.4001 16.2366 20.1472 16.8471 19.6972 17.2972C19.2471 17.7472 18.6366 18.0001 18.0001 18.0001H15.3361L15.4837 18.5869L16.4485 19.5517C16.6163 19.7195 16.7305 19.9333 16.7768 20.1661C16.8231 20.3988 16.7993 20.64 16.7085 20.8593C16.6177 21.0785 16.4639 21.2659 16.2666 21.3978C16.0694 21.5296 15.8374 21.6 15.6001 21.6001H8.4001C8.1628 21.6 7.93084 21.5296 7.73355 21.3978C7.53626 21.2659 7.38249 21.0785 7.29168 20.8593C7.20088 20.64 7.17712 20.3988 7.2234 20.1661C7.26968 19.9333 7.38393 19.7195 7.5517 19.5517L8.5165 18.5869L8.6641 18.0001H6.0001C5.36358 18.0001 4.75313 17.7472 4.30304 17.2972C3.85295 16.8471 3.6001 16.2366 3.6001 15.6001V6.0001ZM10.5253 14.4001H6.0001V6.0001H18.0001V14.4001H10.5253Z" fill="black"/>
</svg>
