<svg width="28" height="27" viewBox="0 0 28 27" fill="none" xmlns="http://www.w3.org/2000/svg">
<g clip-path="url(#clip0_1174_4337)">
<path d="M18.185 7.27588C18.1865 7.09034 18.1363 6.90804 18.0401 6.74939C17.9439 6.59074 17.8054 6.46199 17.6402 6.37754C17.475 6.29309 17.2895 6.25627 17.1046 6.2712C16.9196 6.28614 16.7425 6.35223 16.593 6.4621L3.98808 15.742C3.83173 15.8571 3.71224 16.0151 3.64419 16.1969C3.57614 16.3787 3.56246 16.5763 3.60483 16.7658C3.6472 16.9552 3.74378 17.1282 3.88279 17.2637C4.0218 17.3991 4.19724 17.4912 4.38769 17.5287L9.49019 18.532C9.70347 18.5739 9.92459 18.5451 10.1201 18.4501C10.3156 18.3551 10.4748 18.1989 10.5736 18.0054L12.654 13.9352C12.7747 13.6991 12.9843 13.5206 13.2366 13.4389C13.489 13.3573 13.7634 13.3792 13.9996 13.5C14.2357 13.6207 14.4143 13.8302 14.4959 14.0826C14.5775 14.3349 14.5556 14.6094 14.4349 14.8455L12.3544 18.9156C12.2554 19.1091 12.2221 19.3296 12.2596 19.5437C12.2971 19.7578 12.4033 19.9539 12.5621 20.1022L16.3643 23.6494C16.5061 23.7819 16.6834 23.8703 16.8746 23.9037C17.0658 23.9372 17.2626 23.9143 17.4409 23.8378C17.6193 23.7613 17.7716 23.6346 17.8792 23.4731C17.9868 23.3116 18.0451 23.1223 18.0469 22.9282L18.1859 7.27634L18.185 7.27588Z" fill="black"/>
</g>
<defs>
<clipPath id="clip0_1174_4337">
<rect width="20" height="20" fill="white" transform="translate(9.64697 0.0444336) rotate(27.0738)"/>
</clipPath>
</defs>
</svg>
