<svg width="25" height="25" viewBox="0 0 25 25" fill="none" xmlns="http://www.w3.org/2000/svg">
<path fill-rule="evenodd" clip-rule="evenodd" d="M22.5 12.5C22.5 15.1522 21.4464 17.6957 19.5711 19.5711C17.6957 21.4464 15.1522 22.5 12.5 22.5C9.84784 22.5 7.3043 21.4464 5.42893 19.5711C3.55357 17.6957 2.5 15.1522 2.5 12.5C2.5 9.84784 3.55357 7.3043 5.42893 5.42893C7.3043 3.55357 9.84784 2.5 12.5 2.5C15.1522 2.5 17.6957 3.55357 19.5711 5.42893C21.4464 7.3043 22.5 9.84784 22.5 12.5ZM15 8.75C15 9.41304 14.7366 10.0489 14.2678 10.5178C13.7989 10.9866 13.163 11.25 12.5 11.25C11.837 11.25 11.2011 10.9866 10.7322 10.5178C10.2634 10.0489 10 9.41304 10 8.75C10 8.08696 10.2634 7.45107 10.7322 6.98223C11.2011 6.51339 11.837 6.25 12.5 6.25C13.163 6.25 13.7989 6.51339 14.2678 6.98223C14.7366 7.45107 15 8.08696 15 8.75ZM12.5 13.75C11.3033 13.7498 10.1316 14.0931 9.12427 14.7393C8.11694 15.3854 7.3163 16.3072 6.8175 17.395C7.52085 18.2133 8.39284 18.8697 9.37368 19.3193C10.3545 19.769 11.421 20.0012 12.5 20C13.579 20.0012 14.6455 19.769 15.6263 19.3193C16.6072 18.8697 17.4792 18.2133 18.1825 17.395C17.6837 16.3072 16.8831 15.3854 15.8757 14.7393C14.8684 14.0931 13.6967 13.7498 12.5 13.75Z" fill="black"/>
</svg>
