<svg width="23" height="24" viewBox="0 0 23 24" fill="none" xmlns="http://www.w3.org/2000/svg">
<path d="M18.9247 4.57533L14.7993 8.70067M18.9247 4.57533C16.9555 2.6062 14.2848 1.5 11.5 1.5C8.71523 1.5 6.04447 2.6062 4.07533 4.57533M18.9247 4.57533C20.8938 6.54446 22 9.21523 22 12C22 13.3789 21.7284 14.7443 21.2007 16.0182C20.6731 17.2921 19.8997 18.4497 18.9247 19.4247M14.7993 8.70067C13.9242 7.8255 12.7377 7.33333 11.5 7.33333C10.2623 7.33333 9.07584 7.8255 8.20067 8.70067M14.7993 8.70067C15.6745 9.57584 16.1667 10.7623 16.1667 12C16.1667 13.2377 15.6745 14.4242 14.7993 15.2993M14.7993 15.2993L18.9247 19.4247M14.7993 15.2993C13.9242 16.1745 12.7377 16.6667 11.5 16.6667C10.2623 16.6667 9.07584 16.1745 8.20067 15.2993M18.9247 19.4247C17.9497 20.3997 16.7921 21.1731 15.5182 21.7007C14.2443 22.2284 12.8789 22.5 11.5 22.5C10.1211 22.5 8.75574 22.2284 7.48182 21.7007C6.20791 21.1731 5.05035 20.3997 4.07533 19.4247M8.20067 8.70067L4.07533 4.57533M8.20067 8.70067C7.3255 9.57584 6.83333 10.7623 6.83333 12C6.83333 13.2377 7.3255 14.4242 8.20067 15.2993M4.07533 4.57533C2.1062 6.54446 1 9.21523 1 12C1 13.3789 1.27159 14.7443 1.79926 16.0182C2.32694 17.2921 3.10032 18.4497 4.07533 19.4247M8.20067 15.2993L4.07533 19.4247" stroke="black" stroke-width="2" stroke-linecap="round" stroke-linejoin="round"/>
</svg>
