<svg width="82" height="16" viewBox="0 0 82 16" fill="none" xmlns="http://www.w3.org/2000/svg">
<path d="M7.99992 11.514L12.1199 14.0007L11.0266 9.31398L14.6666 6.16065L9.87325 5.75398L7.99992 1.33398L6.12658 5.75398L1.33325 6.16065L4.97325 9.31398L3.87992 14.0007L7.99992 11.514Z" fill="#0B57CF"/>
<path d="M23.9999 11.514L28.1199 14.0007L27.0266 9.31398L30.6666 6.16065L25.8733 5.75398L23.9999 1.33398L22.1266 5.75398L17.3333 6.16065L20.9733 9.31398L19.8799 14.0007L23.9999 11.514Z" fill="#0B57CF"/>
<path d="M39.9999 11.514L44.1199 14.0007L43.0266 9.31398L46.6666 6.16065L41.8733 5.75398L39.9999 1.33398L38.1266 5.75398L33.3333 6.16065L36.9733 9.31398L35.8799 14.0007L39.9999 11.514Z" fill="#0B57CF"/>
<path d="M55.9999 11.514L60.1199 14.0007L59.0266 9.31398L62.6666 6.16065L57.8733 5.75398L55.9999 1.33398L54.1266 5.75398L49.3333 6.16065L52.9733 9.31398L51.8799 14.0007L55.9999 11.514Z" fill="#0B57CF"/>
<path d="M71.9999 11.514L76.1199 14.0007L75.0266 9.31398L78.6666 6.16065L73.8733 5.75398L71.9999 1.33398L70.1266 5.75398L65.3333 6.16065L68.9733 9.31398L67.8799 14.0007L71.9999 11.514Z" fill="#E8EAED"/>
</svg>
